<svg version="1.1" id="Layer_1" xmlns="http://www.w3.org/2000/svg" xmlns:xlink="http://www.w3.org/1999/xlink" x="0px" y="0px"
	 width="100%" viewBox="0 0 3464 1187" enable-background="new 0 0 3464 1187" xml:space="preserve">
<path fill="#000000" opacity="1.000000" stroke="none" 
	d="
M2430.000000,1188.000000 
	C1621.500000,1188.000000 813.500000,1187.997070 5.500011,1188.092773 
	C1.751020,1188.093140 0.906070,1187.249023 0.907017,1183.500000 
	C1.006236,790.833313 1.006236,398.166656 0.907017,5.500024 
	C0.906070,1.750933 1.751041,0.907136 5.500007,0.907444 
	C1157.166626,1.002136 2308.833252,1.002136 3460.500000,0.907444 
	C3464.249023,0.907136 3465.093994,1.750930 3465.093018,5.500023 
	C3464.993896,398.166656 3464.993896,790.833313 3465.093018,1183.500000 
	C3465.093994,1187.249023 3464.249268,1188.094238 3460.500000,1188.093262 
	C3117.166748,1187.992920 2773.833252,1188.000000 2430.000000,1188.000000 
z"/>
<path fill="#FFFFFF" opacity="1.000000" stroke="none" 
	d="
M1738.000000,541.000000 
	C1737.999756,610.649109 1738.273438,679.799866 1737.846313,748.946350 
	C1737.702637,772.201294 1734.442749,795.296997 1724.856567,816.781128 
	C1716.590576,835.306030 1704.748779,851.046692 1687.870605,863.231079 
	C1671.734375,874.879761 1653.898682,881.431213 1634.777588,884.836914 
	C1619.133911,887.623047 1603.136963,887.987671 1587.330933,886.819885 
	C1568.793335,885.450195 1550.616211,881.725403 1533.744019,873.289551 
	C1519.085693,865.960510 1506.832397,855.803162 1496.456787,843.071655 
	C1482.284912,825.682434 1475.038818,805.503174 1470.973389,783.838257 
	C1468.817505,772.348755 1468.174072,760.788696 1467.915649,749.109680 
	C1465.753540,651.385437 1467.398315,553.651917 1467.189331,455.924377 
	C1467.141357,433.494415 1468.881104,410.977753 1476.240601,389.394745 
	C1484.606201,364.861328 1498.872314,344.480133 1520.111938,329.570587 
	C1534.208618,319.675201 1550.414917,314.423798 1567.264160,310.922699 
	C1583.578491,307.532776 1600.096069,307.131775 1616.487061,308.222748 
	C1638.323975,309.676178 1659.483887,314.309113 1678.734985,325.879547 
	C1702.036987,339.884674 1717.717407,359.709290 1727.097412,385.023102 
	C1731.728027,397.519989 1734.512085,410.288239 1736.116089,423.500488 
	C1738.380127,442.149658 1737.934937,460.828735 1737.987061,479.515686 
	C1738.043945,499.843658 1738.000000,520.171875 1738.000000,541.000000 
z"/>
<path fill="#FFAB00" opacity="1.000000" stroke="none" 
	d="
M2191.000000,641.000000 
	C2191.000000,583.680603 2191.126709,526.860657 2190.901123,470.042145 
	C2190.851807,457.580475 2191.323486,445.135590 2192.171875,432.761780 
	C2194.161865,403.740692 2202.001465,376.307373 2220.489258,353.316559 
	C2231.971436,339.037109 2246.229492,327.631744 2263.824219,320.871704 
	C2277.258301,315.710114 2290.871826,312.071960 2305.276611,310.903198 
	C2330.522461,308.854858 2355.457764,309.275635 2379.793457,317.364227 
	C2414.812012,329.003601 2438.169434,352.573853 2451.021240,386.887268 
	C2455.945557,400.034332 2458.913574,413.561768 2460.145996,427.623993 
	C2461.549561,443.641632 2462.022461,459.643188 2462.016357,475.695679 
	C2461.982178,565.673645 2462.183105,655.652222 2461.881592,745.629150 
	C2461.797852,770.520264 2458.739258,795.260254 2448.752686,818.337585 
	C2440.792725,836.731201 2428.941895,852.679199 2412.582275,864.651794 
	C2394.927734,877.572510 2374.812012,884.136902 2353.220215,887.159607 
	C2341.198730,888.842590 2329.189941,889.549927 2317.190918,888.867188 
	C2297.639404,887.754517 2278.547363,884.385132 2260.400146,876.215881 
	C2235.565430,865.036316 2218.128662,846.587158 2206.360840,822.592468 
	C2199.920654,809.460754 2196.110352,795.334961 2193.985840,780.801758 
	C2190.574463,757.461243 2190.997070,733.966125 2190.999512,710.485046 
	C2191.001709,687.490051 2191.000000,664.494995 2191.000000,641.000000 
z"/>
<path fill="#FFFFFF" opacity="1.000000" stroke="none" 
	d="
M238.000000,725.000000 
	C238.000000,632.506714 237.710083,540.511902 238.171524,448.520935 
	C238.315399,419.836151 242.629150,391.613373 257.043854,366.021423 
	C266.500366,349.232300 279.285522,335.365356 295.993866,325.616211 
	C310.567871,317.112396 326.443878,312.357605 343.211517,309.814240 
	C357.235870,307.686981 371.265289,307.460266 385.230774,308.207245 
	C402.193939,309.114563 418.721130,312.879913 434.446350,319.793488 
	C464.232269,332.888733 482.866516,356.006195 493.857300,385.831177 
	C498.503998,398.440643 500.700592,411.643616 502.150787,425.077057 
	C504.956299,451.065491 503.527344,477.090668 504.052460,503.096130 
	C504.104218,505.659576 503.140625,506.048523 500.890167,506.042694 
	C474.725586,505.975098 448.560516,505.946838 422.396332,506.071442 
	C419.397736,506.085724 418.929474,505.045837 418.944275,502.383209 
	C419.049011,483.551819 419.048279,464.719421 418.980774,445.887695 
	C418.943848,435.587921 417.559418,425.514557 414.051208,415.728943 
	C408.678345,400.742249 394.608337,391.535492 379.590424,391.037720 
	C370.310486,390.730164 361.211487,390.567017 352.260956,394.766876 
	C342.965424,399.128662 336.778900,405.892151 333.132599,414.959900 
	C329.290558,424.514435 327.989288,434.690704 327.990814,445.014832 
	C328.005890,547.674011 327.930206,650.333374 328.094391,752.992310 
	C328.113373,764.847229 330.248871,776.531799 337.013763,786.713135 
	C342.660858,795.212097 350.710144,800.086548 360.709656,802.415588 
	C371.880005,805.017395 382.723236,804.388977 393.208984,800.209229 
	C407.301727,794.591797 414.043427,783.054321 417.004181,768.807800 
	C418.960327,759.395203 419.060547,749.871460 419.032166,740.308167 
	C418.944214,710.643982 418.939453,680.978943 419.082520,651.315186 
	C419.098969,647.904968 418.409973,646.814880 414.800903,646.903748 
	C403.974915,647.170288 393.137299,646.926697 382.306244,647.053650 
	C379.778900,647.083191 378.924316,646.502441 378.936035,643.792297 
	C379.044678,618.627930 379.034607,593.462830 378.947266,568.298279 
	C378.938477,565.760437 379.518951,564.932190 382.214539,564.938354 
	C421.711456,565.028809 461.208893,565.069031 500.705353,564.904358 
	C505.103271,564.885986 503.979736,567.485413 503.980682,569.718140 
	C504.005157,627.213989 504.106110,684.710144 503.909393,742.205322 
	C503.870605,753.543274 503.439392,764.987976 501.837219,776.190063 
	C498.441925,799.930115 491.490967,822.593994 476.917267,842.133850 
	C468.754089,853.078674 458.627167,861.906616 446.870483,869.146362 
	C431.562653,878.572815 414.678467,882.947449 397.383698,885.810181 
	C383.798798,888.058777 369.878174,887.622437 356.170441,886.831421 
	C337.715240,885.766296 319.705048,881.832642 303.028229,873.471863 
	C280.038177,861.946106 263.390289,844.455566 252.809998,820.772949 
	C245.739777,804.947266 241.835159,788.582825 239.950653,771.507385 
	C238.261505,756.202332 237.855057,740.869263 238.000000,725.000000 
z"/>
<path fill="#FFFFFF" opacity="1.000000" stroke="none" 
	d="
M776.224854,863.274902 
	C768.130798,868.899780 760.097473,873.926697 751.186707,877.345886 
	C740.187622,881.566345 728.854980,884.324768 717.175293,886.140564 
	C705.347412,887.979492 693.512268,888.420776 681.665283,887.910156 
	C656.494324,886.825378 632.066833,881.853088 610.809326,867.770386 
	C591.244568,854.809143 577.154907,836.821716 569.003784,814.534729 
	C563.537231,799.587769 560.231873,784.235901 558.780029,768.327881 
	C558.068665,760.533020 558.057373,752.804443 558.053406,745.057922 
	C557.980286,603.417175 558.035706,461.776398 557.862732,320.135834 
	C557.856140,314.754791 559.399536,313.825989 564.376465,313.877045 
	C590.202332,314.141876 616.034058,314.149445 641.859497,313.863007 
	C646.516968,313.811371 647.091492,315.270325 647.088440,319.372345 
	C646.982483,462.346100 646.929565,605.320068 647.147400,748.293518 
	C647.163086,758.594543 648.146484,768.972412 651.853271,778.984436 
	C657.083191,793.110535 669.409668,802.408691 684.442566,804.194580 
	C694.774109,805.421936 704.396790,804.524780 713.928284,800.597412 
	C724.212280,796.359985 730.323181,788.489563 734.005798,778.355957 
	C736.866882,770.482666 738.049744,762.388062 738.046021,753.988831 
	C737.982422,609.182007 738.020508,464.375153 737.902588,319.568451 
	C737.898987,315.182129 738.775146,313.825409 743.444153,313.875000 
	C768.436768,314.140472 793.434204,314.078674 818.428467,313.912781 
	C822.030701,313.888916 823.102783,314.574890 823.099731,318.440735 
	C822.981873,465.413727 823.329346,612.388184 822.724915,759.358765 
	C822.602539,789.121704 814.613159,817.582031 796.845032,842.278870 
	C791.190308,850.138672 784.437195,857.249023 776.224854,863.274902 
z"/>
<path fill="#FFAB00" opacity="1.000000" stroke="none" 
	d="
M3092.001221,780.000000 
	C3087.501953,780.000000 3083.475098,780.290649 3079.510742,779.917297 
	C3075.647705,779.553406 3074.894287,780.947327 3074.912598,784.599182 
	C3075.065918,815.261475 3074.920410,845.925232 3075.093750,876.587280 
	C3075.117188,880.729797 3074.462158,882.182556 3069.810059,882.133362 
	C3043.649414,881.856689 3017.484131,881.930481 2991.321533,882.083069 
	C2987.830566,882.103516 2986.895508,881.228333 2986.912354,877.699707 
	C2987.058105,846.870789 2986.877197,816.039795 2987.125488,785.212158 
	C2987.162354,780.611450 2985.796387,779.893433 2981.607178,779.904724 
	C2928.114014,780.049316 2874.619873,779.953064 2821.126709,780.094604 
	C2817.101807,780.105225 2815.841309,779.334106 2815.885254,775.028564 
	C2816.126221,751.367126 2816.217773,727.698853 2815.870850,704.040039 
	C2815.763184,696.699280 2819.251709,690.876709 2821.862549,684.656006 
	C2834.255127,655.128235 2846.895996,625.704956 2859.339600,596.198425 
	C2872.431152,565.154297 2885.345703,534.035583 2898.441406,502.993134 
	C2906.188232,484.629486 2914.161865,466.361420 2921.987549,448.030670 
	C2934.505615,418.709229 2947.031006,389.390656 2959.462402,360.032440 
	C2965.208984,346.461395 2970.759033,332.806946 2976.351318,319.171051 
	C2977.266602,316.939026 2978.539551,315.928558 2981.162842,315.937195 
	C3011.325684,316.036407 3041.488770,316.029083 3071.651611,315.949341 
	C3074.206299,315.942596 3075.397705,316.547363 3075.025391,319.257660 
	C3074.868408,320.402588 3075.000000,321.587097 3075.000000,322.753632 
	C3075.000244,445.572357 3075.032715,568.391174 3074.878662,691.209717 
	C3074.872559,696.047424 3075.992188,697.313660 3080.816406,697.127502 
	C3091.466064,696.716797 3102.143799,697.095276 3112.806885,696.939209 
	C3115.835693,696.894897 3117.112305,697.386292 3117.089111,700.908813 
	C3116.921875,726.071411 3116.960449,751.235657 3117.056396,776.398987 
	C3117.066895,779.152039 3116.401611,780.149109 3113.496582,780.065186 
	C3106.503174,779.862976 3099.500244,779.999878 3092.001221,780.000000 
z"/>
<path fill="#FFFFFF" opacity="1.000000" stroke="none" 
	d="
M1133.302612,781.319946 
	C1131.364258,796.692078 1126.674805,810.799133 1120.146484,824.324158 
	C1113.982056,837.095276 1105.508301,848.190125 1094.891846,857.562805 
	C1083.016113,868.047424 1069.402100,875.248169 1054.246826,880.165527 
	C1033.073486,887.035461 1011.387634,887.734802 989.595825,886.856628 
	C970.767517,886.097839 952.381775,882.103821 935.439392,873.606262 
	C926.359924,869.052490 918.008301,863.204041 910.378601,856.138794 
	C892.939758,839.989868 882.755676,820.087158 876.913696,797.404602 
	C872.599487,780.653687 870.676208,763.732666 870.964294,746.476013 
	C871.153442,735.146362 871.032166,723.810730 870.972534,712.478210 
	C870.960876,710.258362 870.990723,708.903076 874.034912,708.919617 
	C900.033081,709.060669 926.032654,709.065430 952.030701,708.916077 
	C955.194275,708.897888 955.024170,710.426575 955.017151,712.544189 
	C954.980347,723.710266 954.434509,734.914001 955.172546,746.031189 
	C955.803955,755.542236 955.806824,765.151550 958.782959,774.513855 
	C964.216675,791.607727 975.357605,800.811584 993.205444,803.194824 
	C1004.981689,804.767273 1015.668457,803.016479 1026.003662,797.542542 
	C1038.310181,791.024536 1042.149292,779.219910 1044.924194,766.935425 
	C1047.019897,757.657593 1046.616577,748.059265 1045.822144,738.731384 
	C1044.178711,719.434631 1037.364258,701.864807 1025.744385,686.205627 
	C1012.292480,668.077332 996.627197,651.915405 980.021790,636.828430 
	C962.326538,620.751282 945.240479,604.088379 928.641235,586.940308 
	C915.973145,573.853271 905.261047,559.142395 896.510315,543.060852 
	C888.267944,527.913513 881.426575,512.250366 877.715027,495.333649 
	C875.865967,486.905518 874.776733,478.391418 873.840637,469.803925 
	C872.773987,460.018036 872.687988,450.245026 873.115417,440.513489 
	C874.114563,417.764526 877.695068,395.501648 887.078308,374.435577 
	C893.105225,360.904846 901.329102,348.905334 911.923218,338.751007 
	C924.718140,326.487366 940.233826,318.902649 957.251221,313.894318 
	C977.425476,307.956818 998.023438,307.166473 1018.687622,308.193573 
	C1030.758057,308.793579 1042.705078,311.180237 1054.389771,314.888245 
	C1072.711670,320.702515 1088.791260,329.876648 1101.681641,344.224243 
	C1114.290283,358.258240 1122.641968,374.666351 1128.002563,392.676056 
	C1135.123291,416.599182 1135.421997,441.163452 1135.073364,465.811859 
	C1135.034790,468.546844 1134.168213,469.057068 1131.676880,469.049316 
	C1105.844849,468.968994 1080.012329,468.953674 1054.180542,469.067200 
	C1051.418579,469.079376 1050.895630,468.148285 1050.954468,465.667114 
	C1051.210205,454.902924 1051.117920,444.129700 1049.967773,433.416351 
	C1048.184204,416.801300 1043.069702,401.870514 1026.514893,394.301025 
	C1016.098816,389.538422 1004.913818,389.797150 993.865723,392.018097 
	C973.131348,396.186188 965.886475,414.550415 963.933044,429.710510 
	C961.768311,446.511444 962.810913,462.971161 968.010681,479.087189 
	C972.886841,494.200104 981.451294,507.123505 991.599182,519.248962 
	C1003.217346,533.131165 1015.772522,546.128174 1029.061646,558.296570 
	C1043.978882,571.955811 1058.424316,586.062439 1072.797241,600.269348 
	C1090.409424,617.678223 1105.457031,637.067505 1116.513550,659.214355 
	C1125.293091,676.800232 1131.560181,695.259033 1134.225098,715.024231 
	C1136.297974,730.397461 1135.925415,745.706421 1135.864990,761.050537 
	C1135.838867,767.687317 1134.373535,774.318542 1133.302612,781.319946 
z"/>
<path fill="#FFAB00" opacity="1.000000" stroke="none" 
	d="
M1932.000000,507.999725 
	C1915.334106,507.999695 1899.166992,507.899384 1883.003174,508.081604 
	C1879.646118,508.119446 1878.905396,507.083740 1878.929443,503.900055 
	C1879.072754,484.901978 1878.471802,465.883820 1879.131348,446.907562 
	C1880.046875,420.572662 1883.625488,394.587738 1896.098999,370.841949 
	C1905.777588,352.416870 1919.281860,337.473755 1937.639404,326.940765 
	C1952.667603,318.318115 1968.847290,313.609222 1985.713257,311.123444 
	C1999.530762,309.087006 2013.586182,309.349518 2027.467041,310.163422 
	C2050.968018,311.541443 2073.247314,317.735626 2092.997070,331.071716 
	C2112.679443,344.362152 2125.730225,362.953796 2133.868164,384.977081 
	C2138.888916,398.564117 2141.989014,412.620270 2143.218994,427.197601 
	C2144.022949,436.725098 2144.977051,446.367157 2144.698486,455.769379 
	C2144.013672,478.913696 2141.687256,501.911194 2134.492432,524.272156 
	C2125.884766,551.023926 2113.871582,576.085022 2098.669434,599.547974 
	C2090.247314,612.546814 2080.190674,624.462463 2070.223877,636.381531 
	C2058.744873,650.109131 2046.705444,663.327881 2034.880737,676.745117 
	C2015.864624,698.322021 1996.694458,719.826355 1981.258911,744.247192 
	C1974.591919,754.795349 1970.572510,766.324158 1968.841919,778.780945 
	C1968.128540,783.916138 1968.293457,788.983032 1967.968628,794.075378 
	C1967.693115,798.393860 1969.108398,800.113831 1973.832153,800.099609 
	C2026.162842,799.942017 2078.494141,800.062256 2130.824707,799.895569 
	C2135.552002,799.880554 2137.239014,800.589111 2137.157715,805.928040 
	C2136.795166,829.754822 2136.913086,853.590881 2137.091064,877.421814 
	C2137.118652,881.114990 2136.264893,882.098206 2132.475586,882.092651 
	C2049.479492,881.971375 1966.483154,881.969604 1883.486938,882.096680 
	C1879.626465,882.102600 1878.888794,881.004944 1878.913940,877.383118 
	C1879.080566,853.385376 1878.391113,829.366211 1879.164917,805.392273 
	C1880.004883,779.369141 1884.857910,754.129639 1895.813843,730.084595 
	C1905.705811,708.374084 1918.657471,688.891663 1933.784912,670.611023 
	C1944.995605,657.063660 1956.711548,643.989685 1968.425049,630.884277 
	C1984.031128,613.423645 1999.292358,595.615356 2013.910034,577.323853 
	C2024.486206,564.089783 2032.113403,548.902710 2039.062622,533.423279 
	C2044.727905,520.804016 2048.685791,507.695099 2051.375244,494.176270 
	C2052.392334,489.063324 2053.522949,483.919586 2053.887695,478.739624 
	C2055.307617,458.568085 2056.758301,438.345215 2049.993164,418.701965 
	C2044.702026,403.338623 2033.666626,395.404358 2017.778442,392.850281 
	C2008.058228,391.287720 1998.767822,392.223877 1989.922119,395.704407 
	C1975.741211,401.284119 1968.876221,412.929718 1965.991699,427.346954 
	C1964.335693,435.623993 1963.899536,443.973511 1963.962036,452.401825 
	C1964.089111,469.566803 1963.921509,486.734039 1964.070679,503.898682 
	C1964.098267,507.080994 1963.361938,508.171204 1959.996216,508.082489 
	C1950.836426,507.841064 1941.666138,507.999664 1932.000000,507.999725 
z"/>
<path fill="#FFAB00" opacity="1.000000" stroke="none" 
	d="
M2621.697266,311.632812 
	C2637.071533,309.250885 2652.221924,309.416443 2667.247559,310.202545 
	C2684.822021,311.122040 2701.955078,315.182037 2717.852051,323.053253 
	C2727.073975,327.619476 2735.411377,333.523956 2743.202148,340.478943 
	C2764.251221,359.270477 2774.291748,383.659790 2779.885010,410.329773 
	C2784.262939,431.206207 2784.066406,452.550934 2782.710693,473.610138 
	C2781.060547,499.250763 2775.114258,524.138245 2764.711670,547.939026 
	C2755.838135,568.241882 2745.845947,587.827942 2733.016602,605.894714 
	C2725.259521,616.818298 2716.832275,627.234131 2708.107178,637.405762 
	C2698.186035,648.971924 2688.546631,660.791687 2678.313965,672.074158 
	C2672.240479,678.770935 2666.091309,685.403076 2660.250244,692.299622 
	C2643.916748,711.584167 2626.903564,730.377197 2615.362793,753.202148 
	C2608.465820,766.842773 2606.213379,781.355164 2606.961182,796.485046 
	C2607.087891,799.047852 2608.111328,800.136475 2610.614258,800.008789 
	C2611.777832,799.949463 2612.947021,800.000488 2614.113525,800.000488 
	C2666.109863,800.000610 2718.106445,800.037292 2770.102539,799.922974 
	C2773.820801,799.914795 2775.146240,800.591187 2775.108887,804.707275 
	C2774.887939,829.036926 2774.923096,853.370117 2775.085205,877.700745 
	C2775.108643,881.214233 2774.199951,882.085327 2770.696533,882.080933 
	C2687.868896,881.976624 2605.041260,881.974304 2522.213623,882.086182 
	C2518.579834,882.091064 2517.904053,880.984436 2517.922852,877.612000 
	C2518.064209,852.114563 2517.258057,826.588013 2518.215820,801.125793 
	C2519.110352,777.349060 2523.789062,754.225037 2533.769043,732.190613 
	C2541.390381,715.364258 2550.330078,699.418457 2561.189453,684.619202 
	C2568.922607,674.080933 2577.761719,664.349365 2586.192627,654.329529 
	C2598.041992,640.246948 2610.728027,626.903015 2622.756592,612.967163 
	C2632.184570,602.044617 2641.593994,591.115479 2650.591553,579.846802 
	C2668.058838,557.970581 2680.067139,533.145813 2687.566162,506.368500 
	C2691.062012,493.886353 2693.048828,480.875305 2693.212646,467.655365 
	C2693.285645,461.769501 2694.279297,455.797607 2693.932373,449.877411 
	C2693.246582,438.173523 2692.232666,426.456848 2687.729492,415.447906 
	C2683.781006,405.795227 2676.686035,399.086029 2666.962402,395.551025 
	C2653.237793,390.561554 2639.504639,390.501648 2626.111572,396.963989 
	C2613.750000,402.928436 2608.090088,413.705872 2604.973633,426.384705 
	C2602.004639,438.463501 2603.161865,450.731140 2603.033691,462.934479 
	C2602.888428,476.765350 2602.924072,490.599640 2603.062500,504.430634 
	C2603.090820,507.248779 2602.333252,508.074677 2599.465332,508.062714 
	C2573.467529,507.954254 2547.468750,507.952026 2521.470947,508.064331 
	C2518.529297,508.077057 2517.932861,507.080078 2517.945557,504.368347 
	C2518.043945,483.036926 2517.203369,461.667236 2518.208252,440.382812 
	C2519.378418,415.599609 2523.712891,391.331543 2535.943359,369.105469 
	C2548.180664,346.866913 2565.477051,330.500336 2589.172607,320.851166 
	C2599.605713,316.602570 2610.187744,313.342773 2621.697266,311.632812 
z"/>
<path fill="#FFFFFF" opacity="1.000000" stroke="none" 
	d="
M1344.000000,473.000000 
	C1344.000000,607.492004 1343.975830,741.483948 1344.104614,875.475830 
	C1344.108887,879.959290 1343.079590,881.159546 1338.510620,881.117126 
	C1312.347656,880.874817 1286.180664,880.894470 1260.017212,881.107727 
	C1255.877686,881.141479 1254.893555,880.174561 1254.896729,876.003845 
	C1255.019043,718.179993 1254.979858,560.356140 1255.103027,402.532318 
	C1255.106567,398.067047 1254.106323,396.841583 1249.519409,396.881195 
	C1221.856323,397.120117 1194.189819,396.921173 1166.525879,397.094055 
	C1162.829346,397.117157 1161.869995,396.289917 1161.899780,392.512573 
	C1162.094727,367.848938 1162.089111,343.182312 1161.904297,318.518524 
	C1161.876465,314.805084 1162.738281,313.901215 1166.494873,313.906342 
	C1255.156128,314.027466 1343.817505,314.026093 1432.478760,313.909943 
	C1436.181396,313.905090 1437.129028,314.724243 1437.099487,318.492279 
	C1436.906128,343.155945 1436.910034,367.822540 1437.096436,392.486328 
	C1437.124634,396.209381 1436.251099,397.121918 1432.500366,397.097809 
	C1404.503174,396.917816 1376.503784,397.081055 1348.506592,396.903137 
	C1344.770020,396.879395 1343.871826,397.768860 1343.902222,401.506653 
	C1344.094727,425.169800 1344.000000,448.835297 1344.000000,473.000000 
z"/>
<path fill="#000000" opacity="1.000000" stroke="none" 
	d="
M1557.000000,741.994751 
	C1557.000000,642.032288 1556.892212,542.568542 1557.135010,443.105591 
	C1557.165771,430.500488 1559.308105,417.989899 1566.483032,406.983307 
	C1572.579590,397.630615 1581.885376,392.669373 1592.221558,391.333649 
	C1602.445923,390.012390 1612.961060,389.958221 1623.123535,394.378082 
	C1635.063843,399.571106 1641.375854,408.880249 1644.928223,420.579254 
	C1647.604980,429.394287 1648.065674,438.530304 1648.057495,447.755554 
	C1647.966431,550.384521 1648.135010,653.013855 1647.846313,755.642090 
	C1647.805664,770.081238 1644.250977,783.944336 1633.019043,794.512451 
	C1627.413086,799.787170 1620.431763,802.436279 1613.191162,803.777466 
	C1602.869751,805.689392 1592.535767,804.976685 1582.629883,800.944397 
	C1570.030518,795.815796 1563.236572,785.906128 1560.036011,773.202209 
	C1557.501099,763.140442 1556.693970,752.860474 1557.000000,741.994751 
z"/>
<path fill="#000000" opacity="1.000000" stroke="none" 
	d="
M2281.000000,448.039551 
	C2281.143066,433.520935 2282.852051,419.768188 2291.105713,407.954285 
	C2297.408691,398.932556 2306.651367,394.614471 2317.549805,392.857758 
	C2327.406250,391.269012 2336.904053,392.092896 2345.960205,395.607513 
	C2360.198975,401.133270 2366.984375,412.877960 2369.970215,427.177368 
	C2371.863281,436.243317 2372.047119,445.449768 2372.041016,454.696320 
	C2371.975342,555.010803 2372.115234,655.325684 2371.860840,755.639526 
	C2371.827393,768.867615 2369.049805,781.747620 2360.187744,792.549194 
	C2353.626221,800.546875 2344.828125,804.615662 2335.135254,805.743286 
	C2326.913818,806.699768 2318.394775,806.815613 2310.161621,804.029236 
	C2296.033691,799.247864 2287.706299,789.407410 2284.005127,775.258484 
	C2281.665039,766.312805 2280.949707,757.218018 2280.956299,747.976746 
	C2281.026123,648.162109 2281.000000,548.347473 2281.000000,448.039551 
z"/>
<path fill="#000000" opacity="1.000000" stroke="none" 
	d="
M2980.756836,505.645142 
	C2982.662354,501.034790 2984.364990,496.763580 2986.067383,492.492401 
	C2986.377197,492.565643 2986.686768,492.638885 2986.996582,492.712128 
	C2986.996582,494.112701 2986.996582,495.513245 2986.996582,496.913788 
	C2986.996582,561.898682 2986.958008,626.883667 2987.089600,691.868286 
	C2987.097656,695.886108 2986.337891,697.152771 2982.028076,697.114197 
	C2956.202637,696.883057 2930.374512,697.003113 2904.547119,696.990906 
	C2903.109619,696.990234 2901.672363,696.860901 2899.854980,696.773010 
	C2906.356689,681.181946 2912.679443,665.970032 2919.042725,650.775146 
	C2926.041504,634.063477 2932.913818,617.296021 2940.145752,600.685608 
	C2946.677979,585.681946 2953.015625,570.602966 2959.270996,555.482544 
	C2966.136230,538.888367 2973.440674,522.475952 2980.756836,505.645142 
z"/>
</svg>